Coordinates
version=1
nRows=30
nColumns=38
inDegrees=no

Units are S.I. units (second, meters, Newtons, ...)
If the header above contains a line with 'inDegrees', this indicates whether rotational values are in degrees (yes) or radians (no).

endheader
time	pelvis_tilt	pelvis_list	pelvis_rotation	pelvis_tx	pelvis_ty	pelvis_tz	hip_flexion_r	hip_adduction_r	hip_rotation_r	knee_angle_r	ankle_angle_r	subtalar_angle_r	mtp_angle_r	hip_flexion_l	hip_adduction_l	hip_rotation_l	knee_angle_l	ankle_angle_l	subtalar_angle_l	mtp_angle_l	lumbar_extension	lumbar_bending	lumbar_rotation	arm_flex_r	arm_add_r	arm_rot_r	elbow_flex_r	pro_sup_r	wrist_flex_r	wrist_dev_r	arm_flex_l	arm_add_l	arm_rot_l	elbow_flex_l	pro_sup_l	wrist_flex_l	wrist_dev_l
1.68	2.85135	1.44094	-1.32989	0.88734	1.0422	1.01295	-0.193561	0.0485623	-0.364672	0.276028	0.21162	0	0	0.285278	-0.0562504	-0.213229	0.248003	0.0070449	0	0	-0.398191	0.0243088	0.0966627	0.0793985	-0.247261	0.0826158	0.408933	1.39952	0	0	0.127933	-0.219221	0.342178	0.381154	1.28035	0	0
1.69	2.87182	1.44173	-1.34773	0.887077	1.05124	1.01184	-0.203732	0.0448516	-0.369326	0.27663	0.21917	0	0	0.2796	-0.0451123	-0.213376	0.211593	0.00719127	0	0	-0.397677	0.022913	0.0929521	0.0789309	-0.247377	0.0854222	0.409876	1.39431	0	0	0.127521	-0.218622	0.336748	0.380185	1.28657	0	0
1.7	2.88523	1.44188	-1.35891	0.886855	1.06053	1.01071	-0.215415	0.0427083	-0.372371	0.275511	0.224789	0	0	0.275144	-0.0360043	-0.214591	0.181562	0.00707489	0	0	-0.397076	0.0223115	0.090596	0.0774302	-0.247612	0.0864991	0.411026	1.39166	0	0	0.126841	-0.218013	0.332852	0.379046	1.2922	0	0
1.71	2.89712	1.44095	-1.36833	0.886683	1.07015	1.00963	-0.229348	0.0415128	-0.37508	0.273035	0.22983	0	0	0.270274	-0.0277623	-0.214403	0.156377	0.00655867	0	0	-0.39688	0.0219484	0.0887846	0.0747257	-0.247606	0.0870859	0.412258	1.38932	0	0	0.12584	-0.217572	0.329141	0.37782	1.29848	0	0
1.72	2.90933	1.43929	-1.37799	0.886572	1.08008	1.00857	-0.244891	0.0407121	-0.378051	0.269352	0.234503	0	0	0.265519	-0.0202699	-0.214149	0.136627	0.00624675	0	0	-0.3967	0.0213751	0.0872815	0.0709672	-0.247191	0.0873509	0.413448	1.38774	0	0	0.124041	-0.217444	0.325431	0.377488	1.30388	0	0
1.73	2.91991	1.43668	-1.38833	0.886643	1.09024	1.00754	-0.261156	0.0397031	-0.378808	0.266212	0.238805	0	0	0.2605	-0.0144387	-0.216851	0.122249	0.0068654	0	0	-0.397044	0.0200997	0.0885161	0.0664377	-0.246243	0.0842595	0.414359	1.38928	0	0	0.121931	-0.217743	0.324711	0.377764	1.30641	0	0
1.74	2.92693	1.43405	-1.39722	0.886876	1.1006	1.00645	-0.276501	0.0382311	-0.377589	0.265018	0.242678	0	0	0.256832	-0.010362	-0.224486	0.11496	0.0092868	0	0	-0.396765	0.0183839	0.0921302	0.0611174	-0.24532	0.0808729	0.415067	1.39076	0	0	0.119441	-0.218048	0.325156	0.377346	1.30766	0	0
1.75	2.93349	1.43054	-1.40698	0.887249	1.11126	1.00538	-0.292324	0.0363475	-0.375524	0.26526	0.246417	0	0	0.252777	-0.0074448	-0.235915	0.113105	0.0119156	0	0	-0.396829	0.0161611	0.0973196	0.055057	-0.244232	0.0774781	0.415411	1.39171	0	0	0.116416	-0.218641	0.325999	0.376848	1.30948	0	0
1.76	2.93456	1.42614	-1.41246	0.887749	1.12212	1.00435	-0.308992	0.0349243	-0.372814	0.265481	0.249032	0	0	0.248554	-0.00655489	-0.250622	0.116896	0.0149869	0	0	-0.397473	0.0142009	0.103953	0.048557	-0.242929	0.0734446	0.415542	1.39251	0	0	0.112847	-0.219231	0.326493	0.37707	1.31119	0	0
1.77	2.95924	1.42053	-1.43978	0.888414	1.13281	1.00301	-0.320501	0.0412916	-0.348675	0.272758	0.239379	0	0	0.245956	0.000732856	-0.259397	0.12922	0.014497	0	0	-0.399424	0.00858799	0.110382	0.0410454	-0.240769	0.0686054	0.415451	1.39354	0	0	0.110191	-0.220823	0.326803	0.37794	1.31267	0	0
1.78	2.96298	1.41583	-1.45085	0.889224	1.14425	1.00184	-0.335556	0.0376457	-0.342348	0.277695	0.241085	0	0	0.241222	-0.000592582	-0.277986	0.142417	0.0214499	0	0	-0.399371	0.00452907	0.119598	0.0334239	-0.238608	0.0636397	0.414731	1.39559	0	0	0.10491	-0.222221	0.32639	0.379069	1.31467	0	0
1.79	2.97153	1.41178	-1.46799	0.89013	1.15584	1.00056	-0.348121	0.0316171	-0.336275	0.286987	0.244341	0	0	0.236991	-0.00190858	-0.294659	0.160596	0.0276307	0	0	-0.39835	-0.000947072	0.129385	0.0256641	-0.236099	0.0590165	0.413302	1.39875	0	0	0.0987099	-0.22405	0.32572	0.3804	1.31702	0	0
1.8	2.97817	1.40787	-1.48402	0.890982	1.16767	0.999217	-0.359416	0.0246039	-0.330479	0.298225	0.246964	0	0	0.23274	-0.00377224	-0.308206	0.182162	0.031483	0	0	-0.396898	-0.00636944	0.139479	0.0178612	-0.233641	0.0549689	0.411311	1.4023	0	0	0.0917109	-0.225739	0.324802	0.381629	1.31932	0	0
1.81	2.98571	1.40465	-1.50128	0.891733	1.1797	0.99772	-0.367659	0.01576	-0.324598	0.314369	0.250393	0	0	0.228253	-0.0050842	-0.31742	0.204224	0.03306	0	0	-0.394284	-0.0120294	0.149384	0.00971762	-0.231148	0.0508961	0.408944	1.40575	0	0	0.0837727	-0.22735	0.323472	0.382732	1.3212	0	0
1.82	2.95047	1.40472	-1.47748	0.892266	1.19265	0.995097	-0.370631	0.0111671	-0.319329	0.335461	0.256581	0	0	0.229137	-0.0139343	-0.322519	0.231495	0.0391904	0	0	-0.383131	-0.00912498	0.162486	-0.00433486	-0.231888	0.0473248	0.409518	1.40907	0	0	0.0702529	-0.226615	0.321219	0.383939	1.32293	0	0
1.83	3.0096	1.40052	-1.54451	0.892858	1.20408	0.99457	-0.373824	-0.00766472	-0.313856	0.361484	0.255734	0	0	0.221157	-0.00503689	-0.329173	0.242747	0.014502	0	0	-0.386459	-0.0244625	0.166618	-0.00642879	-0.226057	0.0436019	0.404417	1.41185	0	0	0.0661804	-0.230491	0.318146	0.385057	1.32428	0	0
1.84	2.99229	1.40176	-1.53534	0.892996	1.21654	0.992451	-0.370518	-0.0158934	-0.309067	0.391116	0.256677	0	0	0.225234	-0.0102959	-0.327431	0.267232	-0.00303556	0	0	-0.376555	-0.0236608	0.174358	-0.016906	-0.225313	0.0391672	0.402647	1.41587	0	0	0.0535063	-0.230222	0.314938	0.386338	1.32744	0	0
1.85	3.02929	1.40113	-1.57499	0.892922	1.22788	0.99185	-0.364083	-0.0313547	-0.30413	0.427007	0.250246	0	0	0.231083	-0.00734142	-0.323761	0.296987	-0.0195121	0	0	-0.375041	-0.0326792	0.173811	-0.0201783	-0.220644	0.0347945	0.3995	1.42003	0	0	0.0469761	-0.232924	0.312361	0.388487	1.33133	0	0
1.86	3.05154	1.40126	-1.60146	0.892442	1.23943	0.991928	-0.356517	-0.0570441	-0.311267	0.465332	0.247154	0	0	0.239709	-0.00811606	-0.315908	0.333361	-0.0222042	0	0	-0.37383	-0.0389486	0.172701	-0.0218151	-0.216248	0.0302361	0.397265	1.42455	0	0	0.0400532	-0.235003	0.309473	0.391262	1.33547	0	0
1.87	3.09034	1.4031	-1.63903	0.892157	1.25023	0.991917	-0.337785	-0.0724717	-0.30384	0.514362	0.227733	0	0	0.252615	-0.00482173	-0.305193	0.372739	-0.0221928	0	0	-0.371334	-0.0468517	0.168857	-0.0239616	-0.210555	0.0217455	0.395433	1.4318	0	0	0.0354899	-0.238221	0.307417	0.394934	1.34045	0	0
1.88	-3.10803	1.40048	-1.72096	0.891761	1.26008	0.992999	-0.31745	-0.0970695	-0.297903	0.569202	0.200404	0	0	0.257556	0.00818115	-0.299916	0.400634	-0.0355842	0	0	-0.37593	-0.0634176	0.161272	-0.0214833	-0.203242	0.0118281	0.391786	1.43981	0	0	0.0365205	-0.242619	0.306518	0.396198	1.34383	0	0
1.89	-3.0701	1.40464	-1.75751	0.891095	1.27062	0.992838	-0.287079	-0.113871	-0.286413	0.628582	0.16787	0	0	0.264774	0.0137955	-0.295169	0.421622	-0.04541	0	0	-0.369731	-0.0692315	0.158675	-0.0247059	-0.199536	-0.00230303	0.390674	1.4554	0	0	0.0346758	-0.244212	0.307311	0.394879	1.34712	0	0
1.9	-3.08772	1.41699	-1.74123	0.890263	1.28182	0.991283	-0.246697	-0.120373	-0.267844	0.691068	0.131176	0	0	0.276548	0.00897792	-0.293551	0.441694	-0.0416128	0	0	-0.352117	-0.0628049	0.162424	-0.034858	-0.201078	-0.0120231	0.394991	1.46963	0	0	0.0291579	-0.243269	0.311237	0.391868	1.34855	0	0
1.91	-2.99997	1.42269	-1.83163	0.88974	1.29113	0.991245	-0.203896	-0.144991	-0.249183	0.758295	0.0893365	0	0	0.281034	0.0200351	-0.305936	0.451792	-0.0423809	0	0	-0.344626	-0.0764202	0.161787	-0.0354521	-0.198957	-0.0163147	0.394348	1.47319	0	0	0.030748	-0.2464	0.315445	0.389588	1.34873	0	0
1.92	-3.00947	1.44192	-1.82973	0.88919	1.30159	0.988873	-0.14826	-0.1499	-0.221327	0.826906	0.0471784	0	0	0.29484	0.0128821	-0.313763	0.464623	-0.0226152	0	0	-0.31907	-0.069678	0.171607	-0.0480796	-0.2042	-0.0141212	0.404261	1.47332	0	0	0.0235265	-0.246348	0.32303	0.390543	1.34557	0	0
1.93	-2.93369	1.45477	-1.91373	0.888854	1.31097	0.987539	-0.0931791	-0.164877	-0.19223	0.895306	0.00238589	0	0	0.303369	0.016799	-0.327134	0.471493	-0.00985983	0	0	-0.300489	-0.0762795	0.178265	-0.0552806	-0.206237	-0.0113315	0.412323	1.47002	0	0	0.0189348	-0.249851	0.331271	0.395527	1.33999	0	0
1.94	-2.81845	1.4632	-2.03719	0.888594	1.32	0.986663	-0.0397396	-0.181047	-0.162024	0.96052	-0.0429116	0	0	0.309166	0.0244659	-0.339618	0.476633	0.00113137	0	0	-0.284907	-0.0869033	0.183682	-0.0611198	-0.20704	-0.00952262	0.421164	1.46704	0	0	0.0141071	-0.255244	0.340472	0.404146	1.33127	0	0
1.95	-2.68934	1.46673	-2.1739	0.888408	1.32871	0.986308	0.0101892	-0.19622	-0.132109	1.02097	-0.0888571	0	0	0.312395	0.0343881	-0.34757	0.481624	0.0107261	0	0	-0.273137	-0.0992278	0.187882	-0.0655794	-0.20678	-0.00906867	0.430272	1.46541	0	0	0.00975092	-0.261293	0.347965	0.41431	1.32173	0	0
1.96	-2.57735	1.46613	-2.29195	0.888174	1.33722	0.986473	0.0551005	-0.209247	-0.104249	1.07618	-0.1369	0	0	0.311773	0.0450815	-0.352041	0.484989	0.0188862	0	0	-0.265565	-0.110788	0.19036	-0.0687117	-0.206001	-0.00895128	0.438895	1.46397	0	0	0.00621154	-0.266665	0.352451	0.424167	1.31291	0	0
1.97	-2.50239	1.46364	-2.37085	0.887787	1.3456	0.987144	0.0943875	-0.219083	-0.0805849	1.12539	-0.186198	0	0	0.306879	0.0549912	-0.352369	0.48568	0.0260431	0	0	-0.261708	-0.119366	0.190761	-0.0707022	-0.205574	-0.00793379	0.446948	1.46279	0	0	0.00385467	-0.270321	0.35453	0.431264	1.30552	0	0
